<svg width="253" height="37" viewBox="0 0 253 37" fill="none" xmlns="http://www.w3.org/2000/svg">
<path d="M5 8.5L5 28.5" stroke="#F8F8F8" stroke-width="5" stroke-linecap="round"/>
<path d="M14 6.5L14 30.5" stroke="#F8F8F8" stroke-width="5" stroke-linecap="round"/>
<path d="M23 6L23 31" stroke="#F8F8F8" stroke-width="5" stroke-linecap="round"/>
<path d="M32 10.5L32 26.5" stroke="#F8F8F8" stroke-width="5" stroke-linecap="round"/>
<path d="M41 14.5L41 22.5" stroke="#F8F8F8" stroke-width="5" stroke-linecap="round"/>
<path d="M50 8.5L50 28.5" stroke="#F8F8F8" stroke-width="5" stroke-linecap="round"/>
<path d="M59 6.5L59 30.5" stroke="#F8F8F8" stroke-width="5" stroke-linecap="round"/>
<path d="M68 10.5L68 26.5" stroke="#F8F8F8" stroke-width="5" stroke-linecap="round"/>
<path d="M77 15L77 22" stroke="#F8F8F8" stroke-width="5" stroke-linecap="round"/>
<path d="M86 10L86 27" stroke="#F8F8F8" stroke-width="5" stroke-linecap="round"/>
<path d="M95 14L95 23" stroke="#F8F8F8" stroke-width="5" stroke-linecap="round"/>
<path d="M104 13.5L104 23.5" stroke="#F8F8F8" stroke-width="5" stroke-linecap="round"/>
<path d="M113 12.5L113 24.5" stroke="#F8F8F8" stroke-width="5" stroke-linecap="round"/>
<path d="M122 12.5L122 24.5" stroke="#F8F8F8" stroke-width="5" stroke-linecap="round"/>
<path d="M131 5L131 32" stroke="#F8F8F8" stroke-width="5" stroke-linecap="round"/>
<path d="M140 6.5L140 30.5" stroke="#F8F8F8" stroke-width="5" stroke-linecap="round"/>
<path d="M149 5.5L149 31.5" stroke="#F8F8F8" stroke-width="5" stroke-linecap="round"/>
<path d="M158 8.5L158 28.5" stroke="#F8F8F8" stroke-width="5" stroke-linecap="round"/>
<path d="M167 10.5L167 26.5" stroke="#F8F8F8" stroke-width="5" stroke-linecap="round"/>
<path d="M176 6.5L176 30.5" stroke="#F8F8F8" stroke-width="5" stroke-linecap="round"/>
<path d="M185 15L185 22" stroke="#F8F8F8" stroke-width="5" stroke-linecap="round"/>
<path d="M194 8L194 29" stroke="#F8F8F8" stroke-width="5" stroke-linecap="round"/>
<path d="M203 13.5L203 23.5" stroke="#F8F8F8" stroke-width="5" stroke-linecap="round"/>
<path d="M212 5L212 32" stroke="#F8F8F8" stroke-width="5" stroke-linecap="round"/>
<path d="M221 11.5L221 25.5" stroke="#F8F8F8" stroke-width="5" stroke-linecap="round"/>
<path d="M230 11.5L230 25.5" stroke="#F8F8F8" stroke-width="5" stroke-linecap="round"/>
<path d="M239 6L239 31" stroke="#F8F8F8" stroke-width="5" stroke-linecap="round"/>
<path d="M248 10.5L248 26.5" stroke="#F8F8F8" stroke-width="5" stroke-linecap="round"/>
</svg>
